<svg xmlns="http://www.w3.org/2000/svg" xmlns:xlink="http://www.w3.org/1999/xlink" width="128" zoomAndPan="magnify" viewBox="0 0 96 30.000001" height="40" preserveAspectRatio="xMidYMid meet" version="1.0"><defs><g/><clipPath id="47ee60d248"><path d="M 1.546875 11 L 10 11 L 10 19 L 1.546875 19 Z M 1.546875 11 " clip-rule="nonzero"/></clipPath></defs><g clip-path="url(#47ee60d248)"><g fill="#ffffff" fill-opacity="1"><g transform="translate(1.548386, 17.91779)"><g><path d="M 4.0625 0.1875 C 3.332031 0.1875 2.691406 0.0390625 2.140625 -0.25 C 1.585938 -0.539062 1.15625 -0.941406 0.84375 -1.453125 C 0.53125 -1.972656 0.375 -2.566406 0.375 -3.234375 C 0.375 -3.910156 0.53125 -4.503906 0.84375 -5.015625 C 1.164062 -5.523438 1.601562 -5.925781 2.15625 -6.21875 C 2.707031 -6.507812 3.34375 -6.65625 4.0625 -6.65625 C 4.695312 -6.65625 5.269531 -6.539062 5.78125 -6.3125 C 6.289062 -6.082031 6.707031 -5.757812 7.03125 -5.34375 C 7.363281 -4.925781 7.578125 -4.4375 7.671875 -3.875 L 5.46875 -3.875 C 5.332031 -4.132812 5.144531 -4.335938 4.90625 -4.484375 C 4.664062 -4.628906 4.394531 -4.703125 4.09375 -4.703125 C 3.675781 -4.703125 3.332031 -4.566406 3.0625 -4.296875 C 2.800781 -4.023438 2.671875 -3.671875 2.671875 -3.234375 C 2.671875 -2.796875 2.800781 -2.441406 3.0625 -2.171875 C 3.332031 -1.898438 3.675781 -1.765625 4.09375 -1.765625 C 4.425781 -1.765625 4.710938 -1.847656 4.953125 -2.015625 C 5.203125 -2.191406 5.382812 -2.425781 5.5 -2.71875 L 7.734375 -2.71875 C 7.628906 -2.125 7.410156 -1.609375 7.078125 -1.171875 C 6.742188 -0.742188 6.320312 -0.410156 5.8125 -0.171875 C 5.300781 0.0664062 4.71875 0.1875 4.0625 0.1875 Z M 4.0625 0.1875 "/></g></g></g></g><g fill="#ffffff" fill-opacity="1"><g transform="translate(9.636771, 17.91779)"><g><path d="M 2.96875 0.140625 C 2.226562 0.140625 1.632812 -0.0390625 1.1875 -0.40625 C 0.75 -0.769531 0.53125 -1.265625 0.53125 -1.890625 C 0.53125 -2.492188 0.726562 -2.972656 1.125 -3.328125 C 1.519531 -3.691406 2.050781 -3.875 2.71875 -3.875 L 4.890625 -3.875 L 4.890625 -4.25 C 4.890625 -4.457031 4.796875 -4.628906 4.609375 -4.765625 C 4.429688 -4.910156 4.210938 -4.984375 3.953125 -4.984375 C 3.710938 -4.984375 3.507812 -4.921875 3.34375 -4.796875 C 3.175781 -4.679688 3.078125 -4.53125 3.046875 -4.34375 L 0.84375 -4.34375 C 0.9375 -5.09375 1.25 -5.664062 1.78125 -6.0625 C 2.3125 -6.457031 3.03125 -6.65625 3.9375 -6.65625 C 4.976562 -6.65625 5.78125 -6.40625 6.34375 -5.90625 C 6.90625 -5.40625 7.1875 -4.691406 7.1875 -3.765625 L 7.1875 0 L 5.5 0 L 5.234375 -0.703125 C 4.660156 -0.140625 3.90625 0.140625 2.96875 0.140625 Z M 2.828125 -2 C 2.828125 -1.820312 2.90625 -1.675781 3.0625 -1.5625 C 3.21875 -1.457031 3.421875 -1.40625 3.671875 -1.40625 C 4.023438 -1.40625 4.320312 -1.515625 4.5625 -1.734375 C 4.800781 -1.953125 4.921875 -2.238281 4.921875 -2.59375 L 3.640625 -2.59375 C 3.390625 -2.59375 3.191406 -2.539062 3.046875 -2.4375 C 2.898438 -2.332031 2.828125 -2.1875 2.828125 -2 Z M 2.828125 -2 "/></g></g></g><g fill="#ffffff" fill-opacity="1"><g transform="translate(17.517135, 17.91779)"><g><path d="M 4.109375 0 C 3.222656 0 2.546875 -0.210938 2.078125 -0.640625 C 1.617188 -1.066406 1.390625 -1.691406 1.390625 -2.515625 L 1.390625 -4.625 L 0.203125 -4.625 L 0.203125 -6.46875 L 0.78125 -6.46875 C 1.144531 -6.46875 1.390625 -6.523438 1.515625 -6.640625 C 1.648438 -6.765625 1.742188 -6.992188 1.796875 -7.328125 L 1.921875 -8.171875 L 3.75 -8.171875 L 3.75 -6.46875 L 5.328125 -6.46875 L 5.328125 -4.625 L 3.75 -4.625 L 3.75 -2.953125 C 3.75 -2.304688 4.082031 -1.984375 4.75 -1.984375 L 5.421875 -1.984375 L 5.421875 0 Z M 4.109375 0 "/></g></g></g><g fill="#ffffff" fill-opacity="1"><g transform="translate(23.415165, 17.91779)"><g><path d="M 0.8125 0 L 0.8125 -9.046875 L 3.171875 -9.046875 L 3.171875 -6.109375 C 3.628906 -6.472656 4.207031 -6.65625 4.90625 -6.65625 C 5.726562 -6.65625 6.375 -6.394531 6.84375 -5.875 C 7.320312 -5.363281 7.5625 -4.671875 7.5625 -3.796875 L 7.5625 0 L 5.21875 0 L 5.21875 -3.546875 C 5.21875 -3.929688 5.128906 -4.21875 4.953125 -4.40625 C 4.773438 -4.601562 4.53125 -4.703125 4.21875 -4.703125 C 3.894531 -4.703125 3.640625 -4.597656 3.453125 -4.390625 C 3.265625 -4.179688 3.171875 -3.878906 3.171875 -3.484375 L 3.171875 0 Z M 0.8125 0 "/></g></g></g><g fill="#ffffff" fill-opacity="1"><g transform="translate(31.674857, 17.91779)"><g><path d="M 4.03125 0.1875 C 3.3125 0.1875 2.675781 0.0390625 2.125 -0.25 C 1.582031 -0.539062 1.15625 -0.941406 0.84375 -1.453125 C 0.53125 -1.972656 0.375 -2.566406 0.375 -3.234375 C 0.375 -3.910156 0.53125 -4.503906 0.84375 -5.015625 C 1.15625 -5.523438 1.585938 -5.925781 2.140625 -6.21875 C 2.691406 -6.507812 3.328125 -6.65625 4.046875 -6.65625 C 4.828125 -6.65625 5.492188 -6.488281 6.046875 -6.15625 C 6.609375 -5.832031 7.03125 -5.367188 7.3125 -4.765625 C 7.601562 -4.160156 7.734375 -3.457031 7.703125 -2.65625 L 2.703125 -2.65625 C 2.796875 -2.300781 2.96875 -2.035156 3.21875 -1.859375 C 3.46875 -1.679688 3.757812 -1.59375 4.09375 -1.59375 C 4.34375 -1.59375 4.570312 -1.632812 4.78125 -1.71875 C 5 -1.8125 5.171875 -1.9375 5.296875 -2.09375 L 7.578125 -2.09375 C 7.285156 -1.375 6.832031 -0.8125 6.21875 -0.40625 C 5.601562 -0.0078125 4.875 0.1875 4.03125 0.1875 Z M 2.71875 -3.921875 L 5.453125 -3.921875 C 5.359375 -4.222656 5.191406 -4.457031 4.953125 -4.625 C 4.722656 -4.800781 4.429688 -4.890625 4.078125 -4.890625 C 3.742188 -4.890625 3.457031 -4.804688 3.21875 -4.640625 C 2.976562 -4.472656 2.8125 -4.234375 2.71875 -3.921875 Z M 2.71875 -3.921875 "/></g></g></g><g fill="#ffffff" fill-opacity="1"><g transform="translate(39.738767, 17.91779)"><g><path d="M 3.6875 0.1875 C 3.039062 0.1875 2.46875 0.0390625 1.96875 -0.25 C 1.46875 -0.539062 1.078125 -0.941406 0.796875 -1.453125 C 0.515625 -1.972656 0.375 -2.566406 0.375 -3.234375 C 0.375 -3.910156 0.515625 -4.503906 0.796875 -5.015625 C 1.078125 -5.523438 1.46875 -5.925781 1.96875 -6.21875 C 2.46875 -6.507812 3.039062 -6.65625 3.6875 -6.65625 C 4.375 -6.65625 4.984375 -6.484375 5.515625 -6.140625 L 5.515625 -9.046875 L 7.859375 -9.046875 L 7.859375 0 L 6.171875 0 L 5.953125 -0.640625 C 5.660156 -0.378906 5.320312 -0.175781 4.9375 -0.03125 C 4.5625 0.113281 4.144531 0.1875 3.6875 0.1875 Z M 2.671875 -3.234375 C 2.671875 -2.804688 2.804688 -2.453125 3.078125 -2.171875 C 3.359375 -1.898438 3.710938 -1.765625 4.140625 -1.765625 C 4.578125 -1.765625 4.929688 -1.898438 5.203125 -2.171875 C 5.472656 -2.453125 5.609375 -2.804688 5.609375 -3.234375 C 5.609375 -3.671875 5.472656 -4.023438 5.203125 -4.296875 C 4.929688 -4.566406 4.578125 -4.703125 4.140625 -4.703125 C 3.710938 -4.703125 3.359375 -4.566406 3.078125 -4.296875 C 2.804688 -4.023438 2.671875 -3.671875 2.671875 -3.234375 Z M 2.671875 -3.234375 "/></g></g></g><g fill="#ffffff" fill-opacity="1"><g transform="translate(48.426737, 17.91779)"><g><path d="M 0.8125 0 L 0.8125 -6.46875 L 2.515625 -6.46875 L 2.796875 -5.671875 C 3.003906 -5.953125 3.257812 -6.15625 3.5625 -6.28125 C 3.863281 -6.40625 4.238281 -6.46875 4.6875 -6.46875 L 5.4375 -6.46875 L 5.4375 -4.375 L 4.703125 -4.375 C 4.179688 -4.375 3.796875 -4.242188 3.546875 -3.984375 C 3.296875 -3.722656 3.171875 -3.316406 3.171875 -2.765625 L 3.171875 0 Z M 0.8125 0 "/></g></g></g><g fill="#ffffff" fill-opacity="1"><g transform="translate(54.251352, 17.91779)"><g><path d="M 2.96875 0.140625 C 2.226562 0.140625 1.632812 -0.0390625 1.1875 -0.40625 C 0.75 -0.769531 0.53125 -1.265625 0.53125 -1.890625 C 0.53125 -2.492188 0.726562 -2.972656 1.125 -3.328125 C 1.519531 -3.691406 2.050781 -3.875 2.71875 -3.875 L 4.890625 -3.875 L 4.890625 -4.25 C 4.890625 -4.457031 4.796875 -4.628906 4.609375 -4.765625 C 4.429688 -4.910156 4.210938 -4.984375 3.953125 -4.984375 C 3.710938 -4.984375 3.507812 -4.921875 3.34375 -4.796875 C 3.175781 -4.679688 3.078125 -4.53125 3.046875 -4.34375 L 0.84375 -4.34375 C 0.9375 -5.09375 1.25 -5.664062 1.78125 -6.0625 C 2.3125 -6.457031 3.03125 -6.65625 3.9375 -6.65625 C 4.976562 -6.65625 5.78125 -6.40625 6.34375 -5.90625 C 6.90625 -5.40625 7.1875 -4.691406 7.1875 -3.765625 L 7.1875 0 L 5.5 0 L 5.234375 -0.703125 C 4.660156 -0.140625 3.90625 0.140625 2.96875 0.140625 Z M 2.828125 -2 C 2.828125 -1.820312 2.90625 -1.675781 3.0625 -1.5625 C 3.21875 -1.457031 3.421875 -1.40625 3.671875 -1.40625 C 4.023438 -1.40625 4.320312 -1.515625 4.5625 -1.734375 C 4.800781 -1.953125 4.921875 -2.238281 4.921875 -2.59375 L 3.640625 -2.59375 C 3.390625 -2.59375 3.191406 -2.539062 3.046875 -2.4375 C 2.898438 -2.332031 2.828125 -2.1875 2.828125 -2 Z M 2.828125 -2 "/></g></g></g><g fill="#ffffff" fill-opacity="1"><g transform="translate(62.131716, 17.91779)"><g><path d="M 0.8125 0 L 0.8125 -9.046875 L 3.171875 -9.046875 L 3.171875 0 Z M 0.8125 0 "/></g></g></g><g fill="#0025cc" fill-opacity="1"><g transform="translate(66.122478, 17.91779)"><g><path d="M 1.65625 0.15625 C 1.28125 0.15625 0.96875 0.0351562 0.71875 -0.203125 C 0.476562 -0.441406 0.359375 -0.742188 0.359375 -1.109375 C 0.359375 -1.472656 0.476562 -1.773438 0.71875 -2.015625 C 0.96875 -2.265625 1.28125 -2.390625 1.65625 -2.390625 C 2.039062 -2.390625 2.351562 -2.265625 2.59375 -2.015625 C 2.832031 -1.773438 2.953125 -1.472656 2.953125 -1.109375 C 2.953125 -0.742188 2.832031 -0.441406 2.59375 -0.203125 C 2.351562 0.0351562 2.039062 0.15625 1.65625 0.15625 Z M 1.65625 0.15625 "/></g></g></g><g fill="#ffffff" fill-opacity="1"><g transform="translate(69.44531, 17.91779)"><g><path d="M 3.6875 0.1875 C 3.039062 0.1875 2.46875 0.0390625 1.96875 -0.25 C 1.46875 -0.539062 1.078125 -0.941406 0.796875 -1.453125 C 0.515625 -1.972656 0.375 -2.566406 0.375 -3.234375 C 0.375 -3.910156 0.515625 -4.503906 0.796875 -5.015625 C 1.078125 -5.523438 1.46875 -5.925781 1.96875 -6.21875 C 2.46875 -6.507812 3.039062 -6.65625 3.6875 -6.65625 C 4.375 -6.65625 4.984375 -6.484375 5.515625 -6.140625 L 5.515625 -9.046875 L 7.859375 -9.046875 L 7.859375 0 L 6.171875 0 L 5.953125 -0.640625 C 5.660156 -0.378906 5.320312 -0.175781 4.9375 -0.03125 C 4.5625 0.113281 4.144531 0.1875 3.6875 0.1875 Z M 2.671875 -3.234375 C 2.671875 -2.804688 2.804688 -2.453125 3.078125 -2.171875 C 3.359375 -1.898438 3.710938 -1.765625 4.140625 -1.765625 C 4.578125 -1.765625 4.929688 -1.898438 5.203125 -2.171875 C 5.472656 -2.453125 5.609375 -2.804688 5.609375 -3.234375 C 5.609375 -3.671875 5.472656 -4.023438 5.203125 -4.296875 C 4.929688 -4.566406 4.578125 -4.703125 4.140625 -4.703125 C 3.710938 -4.703125 3.359375 -4.566406 3.078125 -4.296875 C 2.804688 -4.023438 2.671875 -3.671875 2.671875 -3.234375 Z M 2.671875 -3.234375 "/></g></g></g><g fill="#ffffff" fill-opacity="1"><g transform="translate(78.133281, 17.91779)"><g><path d="M 4.03125 0.1875 C 3.3125 0.1875 2.675781 0.0390625 2.125 -0.25 C 1.582031 -0.539062 1.15625 -0.941406 0.84375 -1.453125 C 0.53125 -1.972656 0.375 -2.566406 0.375 -3.234375 C 0.375 -3.910156 0.53125 -4.503906 0.84375 -5.015625 C 1.15625 -5.523438 1.585938 -5.925781 2.140625 -6.21875 C 2.691406 -6.507812 3.328125 -6.65625 4.046875 -6.65625 C 4.828125 -6.65625 5.492188 -6.488281 6.046875 -6.15625 C 6.609375 -5.832031 7.03125 -5.367188 7.3125 -4.765625 C 7.601562 -4.160156 7.734375 -3.457031 7.703125 -2.65625 L 2.703125 -2.65625 C 2.796875 -2.300781 2.96875 -2.035156 3.21875 -1.859375 C 3.46875 -1.679688 3.757812 -1.59375 4.09375 -1.59375 C 4.34375 -1.59375 4.570312 -1.632812 4.78125 -1.71875 C 5 -1.8125 5.171875 -1.9375 5.296875 -2.09375 L 7.578125 -2.09375 C 7.285156 -1.375 6.832031 -0.8125 6.21875 -0.40625 C 5.601562 -0.0078125 4.875 0.1875 4.03125 0.1875 Z M 2.71875 -3.921875 L 5.453125 -3.921875 C 5.359375 -4.222656 5.191406 -4.457031 4.953125 -4.625 C 4.722656 -4.800781 4.429688 -4.890625 4.078125 -4.890625 C 3.742188 -4.890625 3.457031 -4.804688 3.21875 -4.640625 C 2.976562 -4.472656 2.8125 -4.234375 2.71875 -3.921875 Z M 2.71875 -3.921875 "/></g></g></g><g fill="#ffffff" fill-opacity="1"><g transform="translate(86.19719, 17.91779)"><g><path d="M 2.671875 0 L 0.0625 -6.46875 L 2.625 -6.46875 L 3.3125 -4.328125 L 3.859375 -2.671875 L 4.421875 -4.328125 L 5.109375 -6.46875 L 7.671875 -6.46875 L 5.046875 0 Z M 2.671875 0 "/></g></g></g></svg>